<svg xmlns="http://www.w3.org/2000/svg" viewBox="0 0 151.44 151.44" id="blogger">
  <g>
    <g>
      <circle cx="75.77" cy="75.69" r="64.59" fill="#e8e8e8"></circle>
      <circle cx="75.77" cy="75.69" r="64.59" fill="#e8e8e8"></circle>
      <g style="mix-blend-mode:multiply">
        <path fill="#f64e10" d="M85.85,91.64H65.62a3.41,3.41,0,1,1,0-6.82H85.85a3.41,3.41,0,1,1,0,6.82M65.62,64.35h10a3.42,3.42,0,1,1,0,6.83h-10a3.42,3.42,0,1,1,0-6.83m37,7.29c-1.2-.51-6.33,0-7.75-1.23-1-.93-1.07-2.61-1.46-4.85-.66-3.74-.93-4.59-1.62-6.07-2.48-5.26-8.45-9.76-13.86-9.76H65.4a18,18,0,0,0-18,17.9V88.49a18,18,0,0,0,18,17.86H86a18,18,0,0,0,18-17.86L104.08,74a2.72,2.72,0,0,0-1.44-2.4"></path>
      </g>
    </g>
  </g>
</svg>
