<svg xmlns="http://www.w3.org/2000/svg" viewBox="0 0 24 24" id="nintendo-switch">
  <path d="M10.5 24h-7C1.57 24 0 22.43 0 20.5v-17C0 1.57 1.57 0 3.5 0h7a.5.5 0 0 1 .5.5v23a.5.5 0 0 1-.5.5zm-7-23A2.503 2.503 0 0 0 1 3.5v17C1 21.879 2.122 23 3.5 23H10V1H3.5zm15 15c-1.378 0-2.5-1.121-2.5-2.5s1.122-2.5 2.5-2.5 2.5 1.121 2.5 2.5-1.122 2.5-2.5 2.5zm0-4c-.827 0-1.5.673-1.5 1.5s.673 1.5 1.5 1.5 1.5-.673 1.5-1.5-.673-1.5-1.5-1.5z"></path>
  <path d="M20.5 24h-7a.5.5 0 0 1-.5-.5V.5a.5.5 0 0 1 .5-.5h7C22.43 0 24 1.57 24 3.5v17c0 1.93-1.57 3.5-3.5 3.5zM14 23h6.5c1.378 0 2.5-1.121 2.5-2.5v-17C23 2.121 21.878 1 20.5 1H14v22zM5.5 10C4.122 10 3 8.879 3 7.5S4.122 5 5.5 5 8 6.121 8 7.5 6.878 10 5.5 10zm0-4C4.673 6 4 6.673 4 7.5S4.673 9 5.5 9 7 8.327 7 7.5 6.327 6 5.5 6z"></path>
</svg>
