<svg version="1.1" id="Layer_1" xmlns="http://www.w3.org/2000/svg" xmlns:xlink="http://www.w3.org/1999/xlink" x="0px" y="0px"
	 width="100%" viewBox="0 0 512 512" enable-background="new 0 0 512 512" xml:space="preserve">
<path fill="#000000" opacity="1.000000" stroke="none" 
	d="
M1.000000,195.000000 
	C1.000000,130.000000 1.000000,65.500000 1.000000,1.000000 
	C171.666672,1.000000 342.333344,1.000000 513.000000,1.000000 
	C513.000000,171.666672 513.000000,342.333344 513.000000,513.000000 
	C342.333344,513.000000 171.666672,513.000000 1.000000,513.000000 
	C1.000000,407.166656 1.000000,301.333344 1.000000,195.000000 
M16.000324,337.499847 
	C16.335260,345.596222 16.058270,353.776428 17.153515,361.768616 
	C18.665581,372.802429 23.957020,382.328796 32.391960,389.626404 
	C43.465088,399.206451 56.779533,402.428925 71.206841,402.040497 
	C79.315994,401.822174 87.435852,402.001190 96.000305,402.001190 
	C96.000305,414.474548 96.037071,426.431305 95.991150,438.387726 
	C95.931671,453.876862 100.732704,467.044464 112.314781,478.023590 
	C128.431717,493.301422 156.628937,494.121246 173.112747,481.213745 
	C182.312347,474.010010 190.724182,465.799347 199.480331,458.030396 
	C217.257217,442.257721 235.113068,426.572388 252.754349,410.649353 
	C259.240326,404.795105 265.931030,401.687866 275.220306,401.766266 
	C331.211456,402.238831 387.208771,402.062073 443.203522,401.913086 
	C449.229218,401.897064 455.366272,401.185272 461.254791,399.896637 
	C481.498077,395.466583 497.008636,375.454224 497.005798,354.892090 
	C496.992554,259.233704 497.013702,163.575302 496.957062,67.916946 
	C496.954346,63.323460 496.850494,58.620373 495.906525,54.155926 
	C491.632629,33.943352 474.233246,17.234844 452.707306,17.176458 
	C322.219574,16.822529 191.730362,16.986120 61.241726,17.074076 
	C57.711407,17.076454 54.060101,17.785864 50.671761,18.833557 
	C29.406324,25.408941 16.101326,43.490719 16.064018,65.523499 
	C15.911068,155.848755 16.000254,246.174423 16.000324,337.499847 
z"/>
<path fill="#EE4036" opacity="1.000000" stroke="none" 
	d="
M16.000324,336.999878 
	C16.000254,246.174423 15.911068,155.848755 16.064018,65.523499 
	C16.101326,43.490719 29.406324,25.408941 50.671761,18.833557 
	C54.060101,17.785864 57.711407,17.076454 61.241726,17.074076 
	C191.730362,16.986120 322.219574,16.822529 452.707306,17.176458 
	C474.233246,17.234844 491.632629,33.943352 495.906525,54.155926 
	C496.850494,58.620373 496.954346,63.323460 496.957062,67.916946 
	C497.013702,163.575302 496.992554,259.233704 497.005798,354.892090 
	C497.008636,375.454224 481.498077,395.466583 461.254791,399.896637 
	C455.366272,401.185272 449.229218,401.897064 443.203522,401.913086 
	C387.208771,402.062073 331.211456,402.238831 275.220306,401.766266 
	C265.931030,401.687866 259.240326,404.795105 252.754349,410.649353 
	C235.113068,426.572388 217.257217,442.257721 199.480331,458.030396 
	C190.724182,465.799347 182.312347,474.010010 173.112747,481.213745 
	C156.628937,494.121246 128.431717,493.301422 112.314781,478.023590 
	C100.732704,467.044464 95.931671,453.876862 95.991150,438.387726 
	C96.037071,426.431305 96.000305,414.474548 96.000305,402.001190 
	C87.435852,402.001190 79.315994,401.822174 71.206841,402.040497 
	C56.779533,402.428925 43.465088,399.206451 32.391960,389.626404 
	C23.957020,382.328796 18.665581,372.802429 17.153515,361.768616 
	C16.058270,353.776428 16.335260,345.596222 16.000324,336.999878 
M304.500061,81.122124 
	C252.018982,81.122215 199.537872,81.100105 147.056808,81.131020 
	C117.330826,81.148521 96.902344,101.601456 96.821785,131.404678 
	C96.767738,151.397354 96.750015,171.390564 96.827759,191.383087 
	C96.941551,220.645859 117.224373,241.057251 146.503464,241.093109 
	C219.977020,241.183105 293.450836,241.182266 366.924408,241.093674 
	C396.319397,241.058228 416.694000,220.448990 416.798248,190.931351 
	C416.868286,171.105377 416.871368,151.278732 416.798523,131.452774 
	C416.689514,101.773132 396.071838,81.178261 366.478210,81.129120 
	C346.152191,81.095375 325.826111,81.122307 304.500061,81.122124 
M241.193741,274.629089 
	C229.564850,276.787445 218.794525,281.018524 209.566391,288.520264 
	C199.886230,296.389435 193.522598,306.249390 192.920898,319.100342 
	C192.463928,328.860107 198.393982,336.282776 207.036438,337.029327 
	C216.328995,337.832062 223.114243,331.819305 224.915314,322.028381 
	C225.463608,319.047699 227.179901,315.638000 229.454605,313.724487 
	C242.989929,302.338379 269.881958,302.174652 283.606171,313.412201 
	C286.051453,315.414429 288.112854,318.912445 288.658905,322.017456 
	C290.399475,331.914642 297.499481,338.119141 306.917084,336.992767 
	C315.706879,335.941498 321.652832,327.741272 320.585083,318.121796 
	C318.773346,301.799438 309.441010,290.691162 295.648315,282.981384 
	C278.878876,273.607697 260.839783,271.379730 241.193741,274.629089 
z"/>
<path fill="#F7FEF6" opacity="1.000000" stroke="none" 
	d="
M305.000061,81.122124 
	C325.826111,81.122307 346.152191,81.095375 366.478210,81.129120 
	C396.071838,81.178261 416.689514,101.773132 416.798523,131.452774 
	C416.871368,151.278732 416.868286,171.105377 416.798248,190.931351 
	C416.694000,220.448990 396.319397,241.058228 366.924408,241.093674 
	C293.450836,241.182266 219.977020,241.183105 146.503464,241.093109 
	C117.224373,241.057251 96.941551,220.645859 96.827759,191.383087 
	C96.750015,171.390564 96.767738,151.397354 96.821785,131.404678 
	C96.902344,101.601456 117.330826,81.148521 147.056808,81.131020 
	C199.537872,81.100105 252.018982,81.122215 305.000061,81.122124 
M274.839264,161.421341 
	C275.857300,173.576874 285.770203,182.189026 296.934937,180.617645 
	C307.727875,179.098587 315.586151,169.764420 314.728333,159.482407 
	C313.823181,148.632843 305.221344,140.720673 294.454956,140.834488 
	C283.523743,140.950058 275.550903,148.956192 274.839264,161.421341 
M215.032883,141.995132 
	C206.204178,144.052475 200.561829,149.455536 199.095840,158.406036 
	C197.706268,166.889999 200.876328,173.804596 208.134293,178.537415 
	C214.836166,182.907623 223.626144,182.566711 230.219208,177.957642 
	C237.505371,172.864014 240.544312,163.370880 237.580551,154.961853 
	C234.442780,146.059143 226.652313,141.366699 215.032883,141.995132 
z"/>
<path fill="#F7FDF5" opacity="1.000000" stroke="none" 
	d="
M241.608368,274.515015 
	C260.839783,271.379730 278.878876,273.607697 295.648315,282.981384 
	C309.441010,290.691162 318.773346,301.799438 320.585083,318.121796 
	C321.652832,327.741272 315.706879,335.941498 306.917084,336.992767 
	C297.499481,338.119141 290.399475,331.914642 288.658905,322.017456 
	C288.112854,318.912445 286.051453,315.414429 283.606171,313.412201 
	C269.881958,302.174652 242.989929,302.338379 229.454605,313.724487 
	C227.179901,315.638000 225.463608,319.047699 224.915314,322.028381 
	C223.114243,331.819305 216.328995,337.832062 207.036438,337.029327 
	C198.393982,336.282776 192.463928,328.860107 192.920898,319.100342 
	C193.522598,306.249390 199.886230,296.389435 209.566391,288.520264 
	C218.794525,281.018524 229.564850,276.787445 241.608368,274.515015 
z"/>
<path fill="#EE4238" opacity="1.000000" stroke="none" 
	d="
M274.837830,160.978180 
	C275.550903,148.956192 283.523743,140.950058 294.454956,140.834488 
	C305.221344,140.720673 313.823181,148.632843 314.728333,159.482407 
	C315.586151,169.764420 307.727875,179.098587 296.934937,180.617645 
	C285.770203,182.189026 275.857300,173.576874 274.837830,160.978180 
z"/>
<path fill="#EE4238" opacity="1.000000" stroke="none" 
	d="
M215.467651,141.949768 
	C226.652313,141.366699 234.442780,146.059143 237.580551,154.961853 
	C240.544312,163.370880 237.505371,172.864014 230.219208,177.957642 
	C223.626144,182.566711 214.836166,182.907623 208.134293,178.537415 
	C200.876328,173.804596 197.706268,166.889999 199.095840,158.406036 
	C200.561829,149.455536 206.204178,144.052475 215.467651,141.949768 
z"/>
</svg>